<svg xmlns="http://www.w3.org/2000/svg" xmlns:xlink="http://www.w3.org/1999/xlink" width="1440" height="694" viewBox="0 0 1440 694">
    <defs>
        <path id="a" d="M12.283 86.09c37.65-125.866 704.423-112.275 2000.32 40.774V1629.89L303.53 1567.61c-5.053-304.22-37.28-544.345-96.68-720.373C117.749 583.196-44.192 274.89 12.283 86.09z"/>
        <linearGradient id="c" x1="46.321%" x2="22.579%" y1="19.192%" y2="94.484%">
            <stop offset="0%" stop-color="#FF6559"/>
            <stop offset="100%" stop-color="#FE616B"/>
        </linearGradient>
        <linearGradient id="d" x1="42.479%" x2="55.194%" y1="-2.409%" y2="87.457%">
            <stop offset="0%" stop-color="#D92A7A"/>
            <stop offset="100%" stop-color="#ED61A5"/>
        </linearGradient>
        <linearGradient id="e" x1="37.523%" x2="51.266%" y1="0%" y2="90.148%">
            <stop offset="0%" stop-color="#4277FB"/>
            <stop offset="100%" stop-color="#741ABA"/>
        </linearGradient>
        <linearGradient id="f" x1="27.763%" x2="60.113%" y1="17.183%" y2="98.04%">
            <stop offset="0%" stop-color="#FFC292"/>
            <stop offset="100%" stop-color="#FE8714"/>
        </linearGradient>
        <linearGradient id="g" x1="22.103%" x2="31.197%" y1="33.415%" y2="80.1%">
            <stop offset="0%" stop-color="#FF9F28"/>
            <stop offset="100%" stop-color="#FF830B"/>
        </linearGradient>
        <linearGradient id="h" x1="23.382%" x2="69.557%" y1="10.684%" y2="100%">
            <stop offset="0%" stop-color="#FE8F0F"/>
            <stop offset="100%" stop-color="#FB7902"/>
        </linearGradient>
    </defs>
    <g fill="none" fill-rule="evenodd" transform="rotate(-10 -553.84 2601.482)">
        <mask id="b" fill="#fff">
            <use xlink:href="#a"/>
        </mask>
        <use fill="#FFF" xlink:href="#a"/>
        <g mask="url(#b)">
            <path d="M6.425 123.657h2198.36v1781H6.425z"/>
            <path fill="url(#c)" d="M1260.31 1670.184c110.597 109.868 189.668 194.332 237.211 253.392 284.437 353.333 93.564 809.956 135.161 1052.804 52.026 303.736 288.157 265.856 708.393-113.64l-200.004-684.592-296.666-404.972-211.723-503.092-77.645-404.174-811.117 218.322 516.39 585.952z" transform="translate(-1015.909 -830.097)"/>
            <path fill="#F27704" d="M-1.504 2210.19c363.914 0 388.974-227.797 355.415-600.479C320.352 1237.03-98.058 442.764-461.972 442.764c-363.914 0-553.937 679.001-553.937 1042.544 0 363.544 650.491 724.883 1014.405 724.883z"/>
            <path fill="#C7321C" d="M733.636-118.913C405.49 233.813 431.346 603.294 811.202 989.528c318.223 390.308 200.375 852.599 245.82 1077.008 23.482 362.894 181.167 505.048 473.057 426.462l1.526-755.16-452.393-657.002-172.19-554.4-141.06-390.332 23.086-358.671-55.412 103.654z"/>
            <path fill="url(#d)" d="M1699.512 683.848c-186.59 443.205-164.276 801.69 66.944 1075.458 323.553 383.092 401.717 916.133 416.994 1152.232 23.482 362.894 173.771 505.08 450.867 426.56l1.526-755.16-452.393-657.003-172.19-554.4-9.754-382.882-108.22-366.12-193.774 61.315z" transform="translate(-1015.909 -830.097)"/>
            <path fill="#5B0A96" d="M1023.804-167.979C810.769 196.2 800.919 580.988 994.254 986.386c138.617 292.093 373.589 336.514 450.788 546.505 51.466 139.994 68.553 304.271 51.259 492.833h810.41V1509.02l-433.597 23.87C1183.09 1378.548 873.024 831.097 942.918-109.462c69.893-940.558 96.855-960.064 80.886-58.516z"/>
            <path fill="url(#e)" d="M1976.834 897.356c-101.875 411.34-52.636 796.225 147.715 1154.653 138.617 292.093 109.174 425.171 186.374 635.162 51.466 139.994 148.252 265.642 290.358 376.944h810.41v-516.703l-352.368-36.638c-551.526-114.74-827.288-635.904-827.288-1563.495 0-927.59-85.067-944.231-255.2-49.923z" transform="translate(-1015.909 -830.097)"/>
            <path fill="#57257B" fill-opacity=".4" d="M1995.368 1771.78c595.508 60.149 443.918-1217.665 443.918-1518.938 0-301.273-519.907-474.838-821.487-474.838-301.58 0-383.827-15.686-443.222 532.418-59.395 548.104 225.284 1401.21 820.791 1461.358z"/>
            <path fill="url(#f)" d="M3119.929 2437.515c579.098 524.524 321.095-1118.016 321.095-1419.29 0-301.273-519.906-474.837-821.487-474.837-301.58 0-135.07-72.803-353.747 392.323-158.516 337.164-24.434 914.565 341.17 1250.307 138.755 127.42 310.858 220.034 512.969 251.497z" transform="translate(-1015.909 -830.097)"/>
            <path fill="#F27704" d="M2022.968 1249.92c921.318 26.192 533.183-868.27 533.183-1169.543 0-301.274-519.907-474.839-821.487-474.839-301.58 0-353.747 238.677-353.747 539.95s-30.205 1104.433 642.05 1104.433z"/>
            <path fill="url(#g)" d="M3033.28 2004.162c947.77 17.37 534.73-792.416 534.73-1093.689s-519.906-474.838-821.486-474.838c-301.58 0-347.674 200.253-347.674 501.526 0 301.274 10.695 1067 634.43 1067z" transform="translate(-1015.909 -830.097)"/>
            <path fill="#F26B03" d="M1938.728 895.903c346.198 78.997 664.716-1001.11 489.413-1202.565-175.302-201.454-679.24 54.72-788.794 374.315-109.555 319.596-46.818 749.253 299.38 828.25z"/>
            <path fill="url(#h)" d="M3507.826 1502.842c286.746-209.453-319.455-1158.456-586.503-1158.32-267.049.137-404.324 548.53-234.997 840.884 169.327 292.355 534.754 526.888 821.5 317.436z" transform="rotate(49 3500.299 -565.886)"/>
        </g>
    </g>
</svg>
