<?xml version="1.0" encoding="UTF-8"?>
<svg width="91px" height="43px" viewBox="0 0 91 43" version="1.1" xmlns="http://www.w3.org/2000/svg" xmlns:xlink="http://www.w3.org/1999/xlink">
    <!-- Generator: Sketch 57.1 (83088) - https://sketch.com -->
    <title>Group 6</title>
    <desc>Created with Sketch.</desc>
    <g id="New-website-changes" stroke="none" stroke-width="1" fill="none" fill-rule="evenodd">
        <g id="Technology-V2" transform="translate(-1016.000000, -1917.000000)" fill="#0492FF">
            <g id="Group-6" transform="translate(1016.000000, 1917.000000)">
                <path d="M73.9482451,0.582654428 C78.0498283,0.582654428 81.2578042,1.59826931 83.5722689,3.62952955 C85.8867337,5.66078979 87.0439488,8.39513755 87.0439488,11.8326549 C87.0439488,13.7857897 86.6093828,15.5045226 85.7402378,16.9889051 C84.8710928,18.4732876 83.6162225,19.6158543 81.9755892,20.4166396 C84.5146645,21.1002368 86.4970666,22.3013967 87.9228551,24.0201554 C89.3486435,25.738914 90.061527,28.014282 90.061527,30.8463275 C90.061527,34.3424389 88.9677879,37.1353798 86.7802769,39.2252341 C84.5927659,41.3150884 81.5263902,42.3599998 77.5810578,42.3599998 L60.8525415,42.3599998 L60.8525415,0.582654428 L73.9482451,0.582654428 Z M17.4515632,0.582654428 L17.4515632,42.3599998 L10.7132817,42.3599998 L10.7132817,7.67249846 L0.898828161,16.4908582 L0.898828161,9.45960791 L11.0648442,0.582654428 L17.4515632,0.582654428 Z M42.7810564,0.422653922 C45.339663,0.422653922 47.6052655,1.01346835 49.5779317,2.19511493 C51.5505978,3.37676151 53.0544891,4.96365977 54.0896506,6.95585731 C55.1248121,8.94805485 55.642385,11.1550641 55.642385,13.5769513 C55.642385,17.3465016 54.4656389,20.4617049 52.1121114,22.9226548 C49.758584,25.3836047 46.6482634,26.6140612 42.7810564,26.6140612 L33.171681,26.6140612 L33.171681,42.1999993 L26.1697276,42.1999993 L26.1697276,0.422653922 L42.7810564,0.422653922 Z M76.0576202,23.7857803 L67.6201199,23.7857803 L67.6201199,36.2662496 L76.3212921,36.2662496 C78.5673972,36.2662496 80.28613,35.6754352 81.4775423,34.4937886 C82.6689546,33.312142 83.2646517,31.8424301 83.2646517,30.0846087 C83.2646517,28.248662 82.6543063,26.7398879 81.433597,25.5582414 C80.2128877,24.3765948 78.4209134,23.7857803 76.0576202,23.7857803 Z M41.6677751,6.34062291 L33.171681,6.34062291 L33.171681,20.6374985 L41.6677751,20.6374985 C43.9724742,20.6374985 45.7400347,19.9929736 46.9705097,18.7039046 C48.2009846,17.4148357 48.8162129,15.6765717 48.8162129,13.4890607 C48.8162129,11.3601437 48.1961019,9.63652807 46.9558612,8.31816205 C45.7156206,6.99979603 43.9529429,6.34062291 41.6677751,6.34062291 Z M73.977542,6.50062341 L67.6201199,6.50062341 L67.6201199,18.2486708 L74.680667,18.2486708 C76.4970824,18.2486708 77.9277322,17.6822701 78.9726594,16.5494519 C80.0175865,15.4166337 80.5400423,13.9908667 80.5400423,12.272108 C80.5400423,10.5728807 79.9638761,9.18617577 78.8115266,8.1119516 C77.659177,7.03772744 76.0478649,6.50062341 73.977542,6.50062341 Z" id="Combined-Shape"></path>
            </g>
        </g>
    </g>
</svg>