<?xml version="1.0" encoding="UTF-8"?>
<svg width="75px" height="35px" viewBox="0 0 75 35" version="1.1" xmlns="http://www.w3.org/2000/svg" xmlns:xlink="http://www.w3.org/1999/xlink">
    <!-- Generator: Sketch 57.1 (83088) - https://sketch.com -->
    <title>Group 6</title>
    <desc>Created with Sketch.</desc>
    <g id="New-website-changes" stroke="none" stroke-width="1" fill="none" fill-rule="evenodd">
        <g id="X-Core---Overview" transform="translate(-986.000000, -1041.000000)" fill="#7621EC">
            <g id="Group-6" transform="translate(985.500000, 1041.000000)">
                <path d="M35.6508789,0.185546875 C37.783051,0.185546875 39.671053,0.677892212 41.3149414,1.66259766 C42.9588298,2.6473031 44.2120725,3.96971826 45.074707,5.62988281 C45.9373416,7.29004736 46.3686524,9.12922168 46.3686524,11.1474609 C46.3686524,14.2887527 45.3880307,16.8847554 43.4267578,18.9355469 C41.465485,20.9863384 38.8735513,22.0117188 35.6508789,22.0117188 L27.6430664,22.0117188 L27.6430664,35 L21.8081055,35 L21.8081055,0.185546875 L35.6508789,0.185546875 Z M61.6235352,0.185546875 C65.041521,0.185546875 67.7148341,1.03189258 69.6435547,2.72460938 C71.5722753,4.41732617 72.5366211,6.69594922 72.5366211,9.56054688 C72.5366211,11.1881592 72.1744828,12.6204365 71.4501953,13.8574219 C70.7259078,15.0944072 69.6801826,16.0465461 68.3129883,16.7138672 C70.4288843,17.2835315 72.080886,18.284498 73.269043,19.7167969 C74.4572,21.1490957 75.0512695,23.0452356 75.0512695,25.4052734 C75.0512695,28.3186995 74.1398203,30.6461501 72.3168945,32.3876953 C70.4939688,34.1292405 67.9386558,35 64.6508789,35 L50.7104492,35 L50.7104492,0.185546875 L61.6235352,0.185546875 Z M14.5429688,0.185546875 L14.5429688,35 L8.92773439,35 L8.92773439,6.09375 L0.74902345,13.4423828 L0.74902345,7.58300781 L9.22070314,0.185546875 L14.5429688,0.185546875 Z M63.3813477,19.5214844 L56.3500977,19.5214844 L56.3500977,29.921875 L63.6010742,29.921875 C65.4728284,29.921875 66.9051057,29.4295297 67.8979492,28.4448242 C68.8907927,27.4601188 69.387207,26.2353589 69.387207,24.7705078 C69.387207,23.2405522 68.8785858,21.9832406 67.8613281,20.9985352 C66.8440704,20.0138297 65.3507586,19.5214844 63.3813477,19.5214844 Z M34.7231445,5.1171875 L27.6430664,5.1171875 L27.6430664,17.03125 L34.7231445,17.03125 C36.6437271,17.03125 38.1166941,16.494146 39.1420899,15.4199219 C40.1674856,14.3456978 40.6801758,12.8971445 40.6801758,11.0742188 C40.6801758,9.30012134 40.1634166,7.86377502 39.1298828,6.76513672 C38.096349,5.66649841 36.6274509,5.1171875 34.7231445,5.1171875 Z M61.6479492,5.1171875 L56.3500977,5.1171875 L56.3500977,14.9072266 L62.2338867,14.9072266 C63.7475662,14.9072266 64.9397743,14.4352261 65.8105469,13.4912109 C66.6813195,12.5471958 67.1166992,11.3590566 67.1166992,9.92675781 C67.1166992,8.51073511 66.6365608,7.35514771 65.6762695,6.45996094 C64.7159783,5.56477417 63.3732183,5.1171875 61.6479492,5.1171875 Z" id="Combined-Shape"></path>
            </g>
        </g>
    </g>
</svg>