<?xml version="1.0" encoding="UTF-8"?>
<svg width="88px" height="44px" viewBox="0 0 88 44" version="1.1" xmlns="http://www.w3.org/2000/svg" xmlns:xlink="http://www.w3.org/1999/xlink">
    <!-- Generator: Sketch 57.1 (83088) - https://sketch.com -->
    <title>Group 27</title>
    <desc>Created with Sketch.</desc>
    <g id="New-website-changes" stroke="none" stroke-width="1" fill="none" fill-rule="evenodd">
        <g id="Technology-V2-Copy-2" transform="translate(-1016.000000, -1646.000000)" fill="#7621EC">
            <g id="Group-6" transform="translate(1016.000000, 1615.000000)">
                <g id="Group-27" transform="translate(0.000000, 31.000000)">
                    <path d="M72.6316435,0.836718783 C77.2996358,0.836718783 80.8884672,2.64334141 83.3982455,6.25664087 C85.9080238,9.86994033 87.1628941,15.211684 87.1628941,22.2820321 C87.1628941,29.3523803 85.903141,34.6990067 83.3835971,38.3220718 C80.8640531,41.945137 77.2801044,43.7566424 72.6316435,43.7566424 C67.9636512,43.7566424 64.369937,41.9500197 61.8503931,38.3367203 C59.3308491,34.7234208 58.0710961,29.3719116 58.0710961,22.2820321 C58.0710961,15.1921527 59.3210836,9.84552622 61.8210962,6.24199244 C64.3211088,2.63845865 67.9245885,0.836718783 72.6316435,0.836718783 Z M38.6316435,0.836718783 C43.2996358,0.836718783 46.8884672,2.64334141 49.3982455,6.25664087 C51.9080238,9.86994033 53.1628941,15.211684 53.1628941,22.2820321 C53.1628941,29.3523803 51.903141,34.6990067 49.3835971,38.3220718 C46.8640531,41.945137 43.2801044,43.7566424 38.6316435,43.7566424 C33.9636512,43.7566424 30.369937,41.9500197 27.8503931,38.3367203 C25.3308491,34.7234208 24.0710961,29.3719116 24.0710961,22.2820321 C24.0710961,15.1921527 25.3210836,9.84552622 27.8210962,6.24199244 C30.3211088,2.63845865 33.9245885,0.836718783 38.6316435,0.836718783 Z M17.3789069,1.42265631 L17.3789069,43.2000017 L10.6406254,43.2000017 L10.6406254,8.51250034 L0.826171908,17.3308601 L0.826171908,10.2996098 L10.9921879,1.42265631 L17.3789069,1.42265631 Z M72.6316435,6.98906278 C70.1511623,6.98906278 68.2371188,8.23905033 66.8894558,10.7390629 C65.5417927,13.2390755 64.8679713,17.0866935 64.8679713,22.2820321 C64.8679713,32.5164587 67.4558362,37.6335952 72.6316435,37.6335952 C75.1316561,37.6335952 77.0505823,36.3640766 78.3884797,33.8250013 C79.726377,31.285926 80.3953157,27.4383081 80.3953157,22.2820321 C80.3953157,17.1062248 79.7166115,13.2634896 78.3591828,10.7537114 C77.0017541,8.24393309 75.0925934,6.98906278 72.6316435,6.98906278 Z M38.6316435,6.98906278 C36.1511623,6.98906278 34.2371188,8.23905033 32.8894558,10.7390629 C31.5417927,13.2390755 30.8679713,17.0866935 30.8679713,22.2820321 C30.8679713,32.5164587 33.4558362,37.6335952 38.6316435,37.6335952 C41.1316561,37.6335952 43.0505823,36.3640766 44.3884797,33.8250013 C45.726377,31.285926 46.3953157,27.4383081 46.3953157,22.2820321 C46.3953157,17.1062248 45.7166115,13.2634896 44.3591828,10.7537114 C43.0017541,8.24393309 41.0925934,6.98906278 38.6316435,6.98906278 Z" id="Combined-Shape"></path>
                </g>
            </g>
        </g>
    </g>
</svg>