<?xml version="1.0" encoding="UTF-8"?>
<svg width="5000px" height="5000px" viewBox="0 0 2000 2000" version="1.1" xmlns="http://www.w3.org/2000/svg" xmlns:xlink="http://www.w3.org/1999/xlink">
    <!-- Generator: Sketch 58 (84663) - https://sketch.com -->
    <title>Black Original</title>
    <desc>Created with Sketch.</desc>
    <g id="Black-Original" stroke="none" stroke-width="1" fill="none" fill-rule="evenodd">
        <g id="Group-2" transform="translate(475.000000, 442.000000)" fill="#1A1A1A">
            <g id="Group" transform="translate(0.294118, 0.352941)">
                <path d="M894.23504,4.02735623e-11 L1068.23529,7.9722895e-12 L1068.23529,7.9722895e-12 L254.105534,1096.11884 C236.349595,1120.02488 208.327603,1134.11765 178.548884,1134.11765 L4.6753712e-12,1134.11765 L4.6753712e-12,1134.11765 L818.828431,37.7973586 C836.595192,14.0096403 864.54475,4.58868499e-11 894.23504,4.02735623e-11 Z" id="Combined-Shape" transform="translate(534.117647, 567.058824) scale(-1, 1) translate(-534.117647, -567.058824) "></path>
                <path d="M321.411765,703.783529 L434.268235,853.552941 L254.105531,1096.11878 C236.349596,1120.02485 208.327582,1134.11765 178.548836,1134.11765 L2.72848411e-12,1134.11765 L2.72848411e-12,1134.11765 L321.411765,703.783529 Z M1068.23529,2.24531505e-12 L753.684706,423.505882 L641.722353,274.922353 L818.82843,37.7973105 C836.595193,14.0096204 864.544733,2.26497991e-12 894.235002,2.24531505e-12 L1068.23529,2.24531505e-12 L1068.23529,2.24531505e-12 Z" id="Shape"></path>
            </g>
        </g>
    </g>
</svg>