<?xml version="1.0" encoding="UTF-8"?>
<svg width="10px" height="8px" viewBox="0 0 10 8" version="1.1" xmlns="http://www.w3.org/2000/svg" xmlns:xlink="http://www.w3.org/1999/xlink">
    <!-- Generator: Sketch 57.1 (83088) - https://sketch.com -->
    <title>Path</title>
    <desc>Created with Sketch.</desc>
    <g id="New-website-changes" stroke="none" stroke-width="1" fill="none" fill-rule="evenodd">
        <g id="About-Us" transform="translate(-623.000000, -2408.000000)" fill="#7B7B80" fill-rule="nonzero" stroke="#7B7B80" stroke-width="0.643500032">
            <path d="M629.060495,2409.09024 C628.937885,2408.96992 628.73382,2408.96992 628.606923,2409.09024 C628.484312,2409.20649 628.484312,2409.39996 628.606923,2409.51594 L630.906796,2411.6965 L623.317529,2411.6965 C623.140616,2411.69678 623,2411.8301 623,2411.99783 C623,2412.16557 623.140616,2412.30322 623.317529,2412.30322 L630.906796,2412.30322 L628.606923,2414.47972 C628.484312,2414.60004 628.484312,2414.79379 628.606923,2414.90976 C628.73382,2415.03008 628.938171,2415.03008 629.060495,2414.90976 L631.904827,2412.21299 C632.031724,2412.09674 632.031724,2411.90326 631.904827,2411.78728 L629.060495,2409.09024 Z" id="Path"></path>
        </g>
    </g>
</svg>