<svg xmlns="http://www.w3.org/2000/svg" width="14" height="10" viewBox="0 0 14 10">
  <path stroke="#000" stroke-width=".644" d="M289.222072,500.127128 C289.055731,499.957624 288.778883,499.957624 288.606725,500.127128 C288.440384,500.290906 288.440384,500.563488 288.606725,500.726884 L291.726886,503.79896 L281.430782,503.79896 C281.190769,503.799342 281,503.987171 281,504.223484 C281,504.459798 281.190769,504.653735 281.430782,504.653735 L291.726886,504.653735 L288.606725,507.720085 C288.440384,507.889589 288.440384,508.162553 288.606725,508.325949 C288.778883,508.495453 289.056118,508.495453 289.222072,508.325949 L293.080882,504.526607 C293.253039,504.362829 293.253039,504.090248 293.080882,503.926852 L289.222072,500.127128 Z" transform="translate(-280 -499)"/>
</svg>
