<?xml version="1.0" encoding="UTF-8"?>
<svg width="13px" height="9px" viewBox="0 0 13 9" version="1.1" xmlns="http://www.w3.org/2000/svg" xmlns:xlink="http://www.w3.org/1999/xlink">
    <!-- Generator: Sketch 57.1 (83088) - https://sketch.com -->
    <title>Path</title>
    <desc>Created with Sketch.</desc>
    <g id="New-website-changes" stroke="none" stroke-width="1" fill="none" fill-rule="evenodd">
        <g id="Individuals-V2" transform="translate(-354.000000, -3205.000000)" fill="#0492FF" fill-rule="nonzero" stroke="#0492FF" stroke-width="0.550000012">
            <path d="M362.407272,3206.11453 C362.257415,3205.96182 362.008003,3205.96182 361.852906,3206.11453 C361.703049,3206.26208 361.703049,3206.50765 361.852906,3206.65485 L364.663862,3209.42249 L355.388091,3209.42249 C355.171864,3209.42283 355,3209.59205 355,3209.80494 C355,3210.01784 355.171864,3210.19255 355.388091,3210.19255 L364.663862,3210.19255 L361.852906,3212.95503 C361.703049,3213.10774 361.703049,3213.35365 361.852906,3213.50085 C362.008003,3213.65356 362.257764,3213.65356 362.407272,3213.50085 L365.883677,3210.07802 C366.038774,3209.93048 366.038774,3209.68491 365.883677,3209.5377 L362.407272,3206.11453 Z" id="Path"></path>
        </g>
    </g>
</svg>