<?xml version="1.0" encoding="UTF-8"?>
<svg width="13px" height="9px" viewBox="0 0 13 9" version="1.1" xmlns="http://www.w3.org/2000/svg" xmlns:xlink="http://www.w3.org/1999/xlink">
    <!-- Generator: Sketch 57.1 (83088) - https://sketch.com -->
    <title>Path blue</title>
    <desc>Created with Sketch.</desc>
    <g id="New-website-changes" stroke="none" stroke-width="1" fill="none" fill-rule="evenodd">
        <g id="Technology-V2--footer-section" transform="translate(-794.000000, -5536.000000)" fill="#006DEB" fill-rule="nonzero" stroke="#006DEB" stroke-width="0.920205117">
            <g id="Group-12" transform="translate(795.000000, 5537.000000)">
                <g id="Group-11">
                    <g id="Group-10">
                        <path d="M7.31973233,0.108984745 C7.17164626,-0.0363282483 6.92518133,-0.0363282483 6.77191742,0.108984745 C6.62383135,0.249388515 6.62383135,0.483067518 6.77191742,0.623144007 L9.54965315,3.25677837 L0.383504957,3.25677837 C0.169832978,3.25710565 0,3.41812816 0,3.62071541 C0,3.82330267 0.169832978,3.98956168 0.383504957,3.98956168 L9.54965315,3.98956168 L6.77191742,6.61828682 C6.62383135,6.76359982 6.62383135,6.9976061 6.77191742,7.13768259 C6.92518133,7.28299558 7.17199145,7.28299558 7.31973233,7.13768259 L10.7550531,3.88057694 C10.908317,3.74017317 10.908317,3.50649417 10.7550531,3.36641768 L7.31973233,0.108984745 Z" id="Path-blue"></path>
                    </g>
                </g>
            </g>
        </g>
    </g>
</svg>