<svg xmlns="http://www.w3.org/2000/svg" width="14" height="10" viewBox="0 0 14 10">
  <path fill="#FFF" stroke="#FFF" stroke-width=".644" d="M988.222072,1233.12713 C988.055731,1232.95762 987.778883,1232.95762 987.606725,1233.12713 C987.440384,1233.29091 987.440384,1233.56349 987.606725,1233.72688 L990.726886,1236.79896 L980.430782,1236.79896 C980.190769,1236.79934 980,1236.98717 980,1237.22348 C980,1237.4598 980.190769,1237.65374 980.430782,1237.65374 L990.726886,1237.65374 L987.606725,1240.72008 C987.440384,1240.88959 987.440384,1241.16255 987.606725,1241.32595 C987.778883,1241.49545 988.056118,1241.49545 988.222072,1241.32595 L992.080882,1237.52661 C992.253039,1237.36283 992.253039,1237.09025 992.080882,1236.92685 L988.222072,1233.12713 Z" transform="translate(-979 -1232)"/>
</svg>
