<?xml version="1.0" encoding="UTF-8"?>
<svg width="13px" height="9px" viewBox="0 0 13 9" version="1.1" xmlns="http://www.w3.org/2000/svg" xmlns:xlink="http://www.w3.org/1999/xlink">
    <!-- Generator: Sketch 57.1 (83088) - https://sketch.com -->
    <title>Path</title>
    <desc>Created with Sketch.</desc>
    <g id="New-website-changes" stroke="none" stroke-width="1" fill="none" fill-rule="evenodd">
        <g id="Technology-V2--footer-section" transform="translate(-702.000000, -6973.000000)" fill="#FFFFFF" fill-rule="nonzero" stroke="#FFFFFF" stroke-width="0.920205117">
            <g id="Group-12" transform="translate(596.000000, 6968.000000)">
                <g id="Group-11">
                    <g id="Group-10">
                        <path d="M114.319732,6.10898474 C114.171646,5.96367175 113.925181,5.96367175 113.771917,6.10898474 C113.623831,6.24938852 113.623831,6.48306752 113.771917,6.62314401 L116.549653,9.25677837 L107.383505,9.25677837 C107.169833,9.25710565 107,9.41812816 107,9.62071541 C107,9.82330267 107.169833,9.98956168 107.383505,9.98956168 L116.549653,9.98956168 L113.771917,12.6182868 C113.623831,12.7635998 113.623831,12.9976061 113.771917,13.1376826 C113.925181,13.2829956 114.171991,13.2829956 114.319732,13.1376826 L117.755053,9.88057694 C117.908317,9.74017317 117.908317,9.50649417 117.755053,9.36641768 L114.319732,6.10898474 Z" id="Path"></path>
                    </g>
                </g>
            </g>
        </g>
    </g>
</svg>