<?xml version="1.0" encoding="UTF-8"?>
<svg width="26px" height="26px" viewBox="0 0 26 26" version="1.1" xmlns="http://www.w3.org/2000/svg" xmlns:xlink="http://www.w3.org/1999/xlink">
    <!-- Generator: Sketch 57.1 (83088) - https://sketch.com -->
    <title>Group 6</title>
    <desc>Created with Sketch.</desc>
    <g id="New-website-changes" stroke="none" stroke-width="1" fill="none" fill-rule="evenodd">
        <g id="Teams-V2" transform="translate(-1191.000000, -5680.000000)" fill-rule="nonzero">
            <g id="Group-6" transform="translate(1191.000000, 5680.000000)">
                <path d="M13,0 C5.82077124,0 0,5.82077124 0,13 C0,20.1792288 5.82077124,26 13,26 C20.1792288,26 26,20.1792288 26,13 C26,5.82077124 20.1792288,0 13,0 Z" id="Shape" fill="#F2F2F2" transform="translate(13.000000, 13.000000) rotate(90.000000) translate(-13.000000, -13.000000) "></path>
                <path d="M11.6760261,8.2821278 L11.6740392,8.2850036 C11.49539,8.10928064 11.2607233,8 11.0000523,8 C10.4480697,8 10,8.47999821 10,9.07144324 C10,9.38430856 10.1267102,9.66285093 10.3260305,9.8585925 L10.3240436,9.8614683 L13.5200349,12.9999813 L10.3240087,16.1392787 L10.3259956,16.1421171 C10.1266754,16.3371117 10,16.6156914 10,16.9285568 C10,17.5200018 10.448,18 11.0000174,18 C11.2606885,18 11.4953551,17.8907194 11.6740044,17.7157434 L11.6759913,17.7185818 L15.6759913,13.7900064 C15.8820044,13.5864217 16,13.3007085 16,13.0000187 C16,12.6993289 15.8820044,12.4135783 15.6759913,12.210031 L11.6760261,8.2821278 Z" id="Path" fill="#000000" transform="translate(13.000000, 13.000000) rotate(90.000000) translate(-13.000000, -13.000000) "></path>
            </g>
        </g>
    </g>
</svg>