<svg xmlns="http://www.w3.org/2000/svg" width="38" height="38" viewBox="0 0 38 38">
    <path fill="#CCC" fill-rule="evenodd" d="M26.76 24.284a1.78 1.78 0 0 1-.01 2.516 1.783 1.783 0 0 1-2.513-.01l-5.244-5.275-5.275 5.247a1.779 1.779 0 0 1-2.513-.01 1.777 1.777 0 0 1 .01-2.513l5.275-5.244-5.247-5.277a1.773 1.773 0 0 1 .01-2.513 1.77 1.77 0 0 1 2.51.01l5.244 5.275 5.28-5.244a1.773 1.773 0 0 1 2.512.01c.692.693.687 1.818-.009 2.51l-5.277 5.244 5.246 5.274zM19 0C8.507 0 0 8.507 0 19c0 10.495 8.507 19 19 19 10.495 0 19-8.505 19-19C38 8.507 29.495 0 19 0z"/>
</svg>
