<?xml version="1.0" encoding="UTF-8"?>
<svg width="17px" height="19px" viewBox="0 0 17 19" version="1.1" xmlns="http://www.w3.org/2000/svg" xmlns:xlink="http://www.w3.org/1999/xlink">
    <!-- Generator: Sketch 58 (84663) - https://sketch.com -->
    <title>Fill 1</title>
    <desc>Created with Sketch.</desc>
    <g id="New-website-changes" stroke="none" stroke-width="1" fill="none" fill-rule="evenodd">
        <g id="X-Cloud---ECO" transform="translate(-1190.000000, -5823.000000)" fill="#28AA63">
            <g id="Group-6" transform="translate(218.000000, 4682.000000)">
                <g id="Group-19" transform="translate(885.000000, 1130.000000)">
                    <path d="M103.073652,16.5980638 C103.073652,15.1631146 101.984225,13.9836676 100.588348,13.8388703 C100.196093,12.7823861 99.1817454,12.0266054 97.987742,12.0266054 C97.4652459,12.0266054 96.9791405,12.173318 96.5616033,12.4246065 C96.0873729,11.5745926 95.1802828,11 94.1375888,11 C92.7562683,11 91.6132121,12.011666 91.4021451,13.3328458 C91.2883758,13.3194386 91.1746065,13.3106282 91.0581557,13.3106282 C89.5259089,13.3106282 88.2824906,14.5525143 88.2824906,16.0847611 C88.2824906,16.1609904 88.2882365,16.2341552 88.2943655,16.307703 C87.5178994,16.7999373 87,17.6648907 87,18.6524237 C87,19.5246552 87.4041301,20.3030366 88.0338835,20.8117426 C88.0308191,20.8611575 88.0266054,20.9101894 88.0266054,20.9611366 C88.0266054,22.4933835 89.2684914,23.7368018 90.8022705,23.7368018 C91.2615615,23.7368018 91.6940382,23.6234155 92.0740354,23.4257557 C92.6038097,23.8057529 93.3607397,24.2799833 93.7273297,24.1857501 C93.7273297,24.1857501 93.8636997,26.2987185 93.8338209,26.8342387 C93.7782769,27.8547151 93.4718275,28.9904931 93.2561638,29.9109904 L96.5930143,29.9109904 C96.5930143,29.9109904 96.10078,27.8608441 96.0797117,27.177079 C96.0574941,26.4917816 96.2938431,25.2318916 96.2938431,25.2318916 L97.4503064,24.0348238 C97.8961903,24.340124 98.4351581,24.5121187 99.0154966,24.5121187 C100.448913,24.5121187 101.62951,23.4211589 101.77469,22.0237498 C102.831174,21.6330269 103.586955,20.615615 103.586955,19.4216116 C103.586955,18.7167781 103.321876,18.0762989 102.8894,17.5855969 C103.006233,17.2787644 103.073652,16.9466499 103.073652,16.5980638 Z M92.7160468,22.9679969 C92.9389887,22.7553977 93.1243906,22.5067906 93.2680387,22.2317523 L93.8127525,23.3732762 C93.8112202,23.3732762 93.5151135,23.5035172 92.7160468,22.9679969 Z M94.7524028,23.6724474 C94.4712355,23.7233946 93.9908762,22.8557598 93.6495682,22.1493941 C94.0284162,22.3424572 94.4547639,22.453162 94.908309,22.453162 C95.0247597,22.453162 95.138529,22.4439685 95.2522984,22.4305614 C95.1638111,22.9948112 95.0098203,23.6260969 94.7524028,23.6724474 Z M95.9510029,24.2278869 C95.2986488,24.408692 95.6893718,23.0591656 95.8763059,22.2765705 C96.0107605,22.2256233 96.1425338,22.167398 96.2666458,22.0969146 C96.3417259,22.6669104 96.5899498,23.1817454 96.9565399,23.5874077 C96.6378326,23.8701073 96.2727748,24.1393996 95.9510029,24.2278869 Z" id="Fill-1"></path>
                </g>
            </g>
        </g>
    </g>
</svg>