<svg xmlns="http://www.w3.org/2000/svg" width="18" height="18" viewBox="0 0 18 18">
  <path fill="#FFF" d="M26.7124825,21.5186969 C25.9954289,20.6247865 25.9954289,19.374871 26.7124825,18.4809605 L28.21154,16.6125837 C29.5339322,14.9624873 29.0091321,13.0837161 27.9595321,12.0364896 C26.915128,10.9892631 25.0341615,10.4643506 23.3870169,11.7870262 L21.5164425,13.2864051 C20.6227236,14.0036124 19.373076,14.0036124 18.4793571,13.2864051 L16.6087827,11.7870262 C14.964236,10.4643506 13.0832695,10.9892631 12.0362675,12.0364896 C10.9892654,13.0837161 10.4644654,14.9624873 11.7868576,16.6125837 L13.2859151,18.4809605 C14.0029686,19.374871 14.0029686,20.6247865 13.2859151,21.5186969 L11.7868576,23.3870738 C10.4644654,25.0371701 10.9892654,26.9159413 12.0362675,27.9631678 C12.6416061,28.5686362 13.5249329,29 14.4810043,29 C15.1772737,29 15.9151113,28.7713252 16.6087827,28.2126312 L18.4793571,26.7132523 C19.373076,25.996045 20.6227236,25.996045 21.5164425,26.7132523 L23.3870169,28.2126312 C25.0367596,29.5353069 26.91253,29.0103943 27.9621301,27.9631678 C29.0091321,26.9159413 29.5365302,25.0371701 28.214138,23.3870738 L26.7124825,21.5186969 Z M27.6763479,27.6799229 C27.4217419,27.9345834 27.047627,28.1164838 26.6449339,28.1164838 C26.3513577,28.1164838 26.0395953,28.0203365 25.746019,27.783866 L20.6642919,23.7092973 C20.2719909,23.3948695 19.7264067,23.3948695 19.3341057,23.7092973 L14.2523785,27.7864646 C13.5587072,28.3451586 12.7637131,28.1242796 12.3220497,27.6799229 C11.8803863,27.2381648 11.6569566,26.4455989 12.2155309,25.7491802 L16.2918242,20.6663637 C16.6061847,20.2739786 16.6061847,19.7282774 16.2918242,19.3358923 L12.2155309,14.2530758 C11.6569566,13.5566572 11.8803863,12.7640912 12.3220497,12.3223331 C12.7637131,11.880575 13.5587072,11.659696 14.2523785,12.2157914 L19.3341057,16.2929587 C19.7264067,16.6073865 20.2745889,16.6073865 20.6642919,16.2929587 L25.746019,12.2157914 C26.4396904,11.6570974 27.2346845,11.8779764 27.6763479,12.3223331 C28.1180113,12.7640912 28.341441,13.5566572 27.7828667,14.2530758 L23.7065733,19.3358923 C23.3922129,19.7282774 23.3922129,20.2739786 23.7065733,20.6663637 L27.7828667,25.7491802 C28.341441,26.4455989 28.1180113,27.2381648 27.6763479,27.6799229 Z" transform="translate(-11 -11)"/>
</svg>
