<svg xmlns="http://www.w3.org/2000/svg" width="18" height="18" viewBox="0 0 18 18">
    <path fill="#FFF" fill-rule="nonzero" d="M15.712 10.519a2.414 2.414 0 0 1 0-3.038l1.5-1.868c1.322-1.65.797-3.53-.252-4.577C15.915-.01 14.034-.536 12.387.787l-1.87 1.5a2.412 2.412 0 0 1-3.038 0L5.61.786c-1.645-1.323-3.526-.798-4.573.25C-.01 2.083-.536 3.961.786 5.612l1.5 1.868a2.414 2.414 0 0 1 0 3.038l-1.5 1.868c-1.322 1.65-.797 3.529.25 4.576C1.642 17.57 2.525 18 3.481 18c.696 0 1.434-.229 2.128-.787l1.87-1.5a2.412 2.412 0 0 1 3.037 0l1.871 1.5c1.65 1.322 3.526.797 4.575-.25 1.047-1.047 1.575-2.926.252-4.576l-1.502-1.868zm.964 6.16a1.485 1.485 0 0 1-1.031.437c-.294 0-.605-.096-.899-.332l-5.082-4.075a1.056 1.056 0 0 0-1.33 0l-5.082 4.077c-.693.56-1.488.338-1.93-.106-.442-.442-.665-1.234-.106-1.93l4.076-5.084a1.056 1.056 0 0 0 0-1.33L1.216 3.253c-.559-.696-.336-1.489.106-1.93.442-.442 1.237-.663 1.93-.107l5.082 4.077c.392.314.94.314 1.33 0l5.082-4.077c.694-.559 1.489-.338 1.93.106.442.442.665 1.235.107 1.931l-4.076 5.083a1.056 1.056 0 0 0 0 1.33l4.076 5.083c.558.697.335 1.49-.107 1.93z"/>
</svg>
