<?xml version="1.0" encoding="UTF-8"?>
<svg width="38px" height="38px" viewBox="0 0 552 553" version="1.1" xmlns="http://www.w3.org/2000/svg" xmlns:xlink="http://www.w3.org/1999/xlink">
    <!-- Generator: Sketch 58 (84663) - https://sketch.com -->
    <title>Group 2</title>
    <desc>Created with Sketch.</desc>
    <g id="Page-1" stroke="none" stroke-width="1" fill="none" fill-rule="evenodd">
        <g id="Artboard-Copy-4" transform="translate(-3420.000000, -642.000000)">
            <g id="Group-2" transform="translate(3420.000000, 642.000000)">
                <path d="M259.27027,25.862748 L392.366449,159.944313 L473.671082,79.4830247 C501.89526,103.775007 547.849354,152.742529 551.15928,199.229712 C552.487901,221.986154 543.323599,244.102909 526.270687,259.294834 L391.620449,392.993313 L473.029244,475.253127 C448.737262,503.477305 399.76974,549.431398 353.282557,552.741324 C330.526115,554.069945 308.409361,544.905643 293.217435,527.852731 L159.583449,393.233313 L78.3684889,473.607777 C50.1443109,449.315795 4.1902175,400.348273 0.880291171,353.86109 C-0.448329615,331.104648 8.71597225,308.987893 25.7688845,293.795967 L160.358449,160.122313 L79.4584605,78.4623524 C103.750443,50.2381745 152.717965,4.28408107 199.205148,0.974154741 C221.96159,-0.354466044 244.078344,8.80983582 259.27027,25.862748 Z" id="Combined-Shape" fill="#7715FF"></path>
                <path d="M270.742071,192.660502 L315.48979,237.703476 L342.820644,210.634551 C352.303788,218.803021 367.74407,235.268937 368.856184,250.90081 C369.302592,258.552936 366.223445,265.98996 360.493776,271.098427 L315.26379,316.031476 L342.621087,343.6528 C334.452617,353.135944 317.986701,368.576226 302.354829,369.68834 C294.702702,370.134748 287.265678,367.055601 282.157211,361.325931 L237.22879,316.101476 L209.927947,343.142004 C200.444804,334.973534 185.004522,318.507618 183.892408,302.875746 C183.445999,295.223619 186.525146,287.786596 192.254816,282.678129 L237.46879,237.758476 L210.278195,210.333633 C218.446665,200.85049 234.912581,185.410208 250.544454,184.298094 C258.19658,183.851686 265.633604,186.930832 270.742071,192.660502 Z" id="Combined-Shape" fill="#FFFFFF"></path>
            </g>
        </g>
    </g>
</svg>